<svg width="56" height="50" viewBox="0 0 56 50" fill="none" xmlns="http://www.w3.org/2000/svg">
<g clip-path="url(#clip0_34_85)">
<path d="M3.37722 41.9973C3.29874 41.9589 3.21593 41.9298 3.13076 41.9105C1.09096 41.7803 0.161089 40.6851 0.573388 38.6759C0.815431 37.5178 1.19858 36.3937 1.71433 35.3289C2.03723 34.6601 2.70233 34.1571 3.19666 33.5981C3.03304 32.882 2.71264 32.1123 2.72262 31.3463C2.73217 30.605 3.08161 29.8681 3.29795 29.0698C1.68826 27.5668 1.64351 27.2452 2.78449 24.6386C2.15303 23.9853 2.0835 23.1943 2.18224 22.295C2.45479 19.8167 2.78009 17.352 3.72751 15.0266C6.1362 9.11575 10.407 5.05959 16.3764 2.94667C23.6253 0.381081 30.9434 0.342655 38.1595 3.16213C41.4933 4.46413 44.4367 6.40564 46.5381 9.38418C47.3701 10.5196 48.0684 11.7472 48.6193 13.0426C49.3491 14.8591 49.8695 16.7632 50.4165 18.6483C50.7974 19.9596 50.9156 21.2873 49.9608 22.5192C50.8527 23.2399 51.6283 23.9581 52.0026 25.0114C52.3899 26.1012 52.0974 27.0497 51.4738 27.9954C52.6145 29.1603 52.7781 30.5252 52.2673 32.0689C53.233 32.8087 54.1166 33.658 54.515 34.86C54.7455 35.483 54.8939 36.1331 54.9568 36.7945C55.0781 38.925 54.2429 39.8707 52.174 40.1131C52.1243 41.0692 52.1148 42.0216 52.0173 42.9647C51.819 44.8849 50.7058 46.1309 48.8876 46.5843C47.1568 46.9968 45.4021 47.301 43.6333 47.4956C40.3178 47.8943 36.9966 48.266 33.6683 48.5301C28.1854 48.9641 22.6909 49.1607 17.1993 48.687C14.1322 48.4225 11.0708 48.0855 8.01431 47.7174C7.13425 47.5874 6.27094 47.3618 5.43976 47.0447C4.94032 46.8809 4.50039 46.5732 4.1755 46.16C3.85061 45.7468 3.65524 45.2469 3.61393 44.7228C3.49935 43.8121 3.45209 42.8913 3.37722 41.9973ZM48.4238 21.4413C47.9516 19.459 47.568 17.5764 47.0459 15.733C46.539 13.8283 45.669 12.0395 44.4835 10.4648C42.4127 7.78207 39.6523 6.11161 36.5524 4.94719C31.8548 3.18276 26.9958 2.86399 22.0818 3.67666C15.2378 4.80722 9.76927 8.01469 6.42856 14.3457C5.09293 16.8765 4.46986 19.5896 3.98074 22.4436C4.33892 22.5925 4.7093 22.7106 5.08757 22.7965C6.33358 22.9623 7.58713 23.2234 8.83401 23.203C13.7304 23.1222 18.6249 22.9354 23.521 22.8124C27.4907 22.7126 31.4612 22.65 35.4314 22.5656C39.0666 22.4885 42.7033 22.4202 46.3055 21.8478C46.9908 21.7386 47.6691 21.5874 48.4238 21.4413ZM45.0564 38.7063C44.451 39.1741 43.879 39.5743 43.3543 40.0311C42.4008 40.8589 41.3863 41.0004 40.2759 40.398C39.8439 40.1849 39.4264 39.9436 39.0262 39.6756C38.0089 38.9341 37.0218 38.8647 35.9494 39.5914C35.2331 40.0539 34.4879 40.4705 33.7188 40.8387C33.0945 41.1747 32.3978 41.3526 31.6888 41.3569C30.9801 41.3615 30.2809 41.192 29.6527 40.8639C29.0885 40.5853 28.5319 40.2867 27.9955 39.9586C27.6878 39.747 27.3278 39.6251 26.955 39.606C26.5822 39.5867 26.2113 39.6713 25.8834 39.8501C25.2272 40.1914 24.5712 40.5395 23.9476 40.9351C23.4871 41.2539 22.9507 41.4457 22.3923 41.4915C21.8341 41.5373 21.2736 41.4351 20.7673 41.1955C20.1209 40.9173 19.507 40.5692 18.9361 40.1578C17.9861 39.4493 17.0264 39.4053 16.023 39.9454C15.4371 40.2607 14.8812 40.6339 14.319 40.9924C12.8722 41.9151 11.4498 41.8419 10.0523 40.8915C9.71528 40.6623 9.39714 40.4048 9.07707 40.1515C8.24205 39.4912 7.37401 39.4834 6.50145 40.0484C6.10912 40.3025 5.75676 40.6181 5.44232 40.8622C5.57252 41.692 5.66568 42.3901 5.79154 43.0823C6.06735 44.5996 6.16252 44.6903 7.64875 45.0043C7.75725 45.0273 7.86977 45.0329 7.97935 45.0522C12.5905 45.8308 17.2533 46.2644 21.929 46.3492C29.4457 46.5339 36.8925 45.6449 44.3323 44.7228C45.4698 44.5818 46.5991 44.355 47.7212 44.1167C48.5367 43.9431 48.9822 43.3831 49.0622 42.5502C49.1273 41.8656 49.1822 41.1799 49.2471 40.428C47.5502 40.6148 46.2768 39.9404 45.0564 38.7063ZM2.69973 39.813C3.20577 39.5565 3.60145 39.3816 3.97057 39.162C4.35205 38.9344 4.69725 38.6464 5.07614 38.4136C6.90674 37.2891 8.54505 37.3913 10.2131 38.7224C10.4446 38.9075 10.6746 39.0949 10.9033 39.2846C11.6529 39.9052 12.4288 39.9573 13.2554 39.4283C13.8387 39.034 14.4429 38.6718 15.0655 38.3433C16.7269 37.5187 18.3423 37.5273 19.8719 38.7013C20.2603 38.9856 20.6705 39.239 21.0985 39.4593C21.402 39.6424 21.7534 39.7303 22.1074 39.7117C22.4613 39.693 22.8016 39.5684 23.0841 39.3543C23.6941 38.9337 24.3388 38.5655 25.0113 38.2541C26.3424 37.6521 27.6656 37.6465 28.9279 38.4912C29.266 38.7178 29.6319 38.9022 29.9806 39.1132C30.4463 39.4248 30.992 39.5953 31.5523 39.6042C32.1126 39.6131 32.6636 39.4599 33.1388 39.1631C33.8454 38.756 34.5628 38.366 35.2526 37.9318C36.7282 37.0039 38.1652 37.051 39.6471 37.944C41.467 39.0409 41.4818 39.0166 43.1653 37.7578C44.5758 36.703 45.636 36.668 47.1503 37.6384C47.5732 37.9093 47.9824 38.2026 48.4308 38.5077C49.0167 37.7773 49.1805 36.5819 50.2386 36.6556C51.0632 36.7132 51.8587 37.2066 52.6907 37.5152C53.5229 36.2627 52.7933 34.1434 51.2765 33.3369C50.0424 33.7058 48.9305 34.1376 47.7782 34.3672C43.4745 35.2252 39.0918 35.373 34.7327 35.7388C32.6028 35.9176 30.4669 35.6557 28.339 35.9139C27.9356 35.9628 27.4972 35.7084 27.073 35.6015C26.6581 35.4967 26.2406 35.3144 25.8246 35.315C21.4093 35.3233 16.9927 35.422 12.5789 35.3643C10.474 35.3367 8.37199 35.014 6.26644 34.8561C5.8656 34.8231 5.46233 34.8754 5.08312 35.0095C3.53136 35.5943 2.55022 37.5028 2.69973 39.8139V39.813ZM17.6032 25.0657C17.6156 25.1403 17.6279 25.215 17.6401 25.2896C20.6232 27.6039 23.5908 29.9384 26.5954 32.2241C28.1472 33.4046 27.9269 33.8238 29.6184 32.0149C31.5931 29.9044 33.4747 27.7079 35.3923 25.5446C35.5551 25.361 35.6829 25.1464 35.9769 24.7385L17.6032 25.0657ZM23.8432 33.0975C22.7011 32.1379 21.7554 31.3691 20.8419 30.5638C20.4211 30.1927 19.9936 30.1133 19.4314 30.1224C15.3171 30.1875 11.2013 30.6035 7.0857 30.0997C6.58378 30.0382 6.05743 30.1595 5.54488 30.2105C5.0473 30.2598 4.8633 30.5985 4.82099 31.0479C4.76348 31.6586 5.01533 32.0908 5.71082 32.2705C6.56477 32.5205 7.44325 32.6776 8.33091 32.7392C13.1142 32.91 17.9005 33.0246 22.6844 33.1537C22.9711 33.1624 23.2599 33.1283 23.8432 33.0984V33.0975ZM50.1733 29.0001C48.7947 29.3532 47.5224 29.8041 46.2128 29.9907C42.4359 30.5456 38.6228 30.8164 34.8056 30.8008C34.5595 30.7776 34.3132 30.8418 34.1099 30.982C33.3979 31.7139 32.7311 32.4897 31.9596 33.3488C33.0741 33.3488 33.994 33.4067 34.9043 33.3384C38.23 33.0895 41.5586 32.8556 44.8737 32.4982C46.4556 32.325 48.018 32.0064 49.5416 31.5466C50.9163 31.1339 51.0942 30.124 50.1733 29.001V29.0001ZM36.3404 28.3044C36.8443 28.3044 37.1401 28.3207 37.4334 28.3018C39.8738 28.1458 42.3248 28.0748 44.7502 27.7893C46.2868 27.572 47.8002 27.2142 49.2714 26.7203C50.2145 26.4267 50.3996 25.8838 50.1362 25.0991C49.8291 24.1855 49.1675 23.7134 48.3568 23.8659C45.7339 24.3609 43.0726 24.6232 40.4035 24.6501C39.8907 24.6551 39.3786 24.6994 39.0466 24.7152L36.3404 28.3044ZM4.89516 24.6758C4.63146 25.1477 4.39439 25.634 4.18524 26.1327C3.937 26.8314 4.02831 27.0619 4.75678 27.3073C5.49275 27.5564 6.25119 27.7339 7.02128 27.8374C10.1621 28.2497 13.3163 28.0692 16.4671 27.9778C16.7519 27.9433 17.0342 27.8895 17.3116 27.8166C16.8034 27.4312 16.4615 27.1558 16.1031 26.9041C15.5571 26.5207 14.8955 26.2431 14.4756 25.754C14.0416 25.2491 13.5902 25.1968 13.0216 25.1961C10.3547 25.1937 7.67796 25.3688 4.89516 24.6758Z" fill="white"/>
<path d="M23.0962 8.67515C23.1459 8.24398 23.0706 7.79262 23.5849 7.62857C24.0881 7.46799 24.4689 7.71665 24.6766 8.15781C24.9018 8.6208 25.0787 9.10596 25.2037 9.60545C25.3096 10.0564 25.2204 10.5095 24.7131 10.7156C24.2652 10.8974 23.78 10.6891 23.5436 10.1468C23.3646 9.66587 23.2153 9.17438 23.0962 8.67515Z" fill="white"/>
<path d="M15.0234 14.6603C15.1881 14.7753 15.59 14.9094 15.6545 15.1377C15.6936 15.3054 15.6956 15.4796 15.6606 15.6483C15.6256 15.8169 15.5543 15.9758 15.4517 16.1142C14.9003 16.7072 14.1163 16.8954 13.3336 16.9247C12.7677 16.9464 12.5159 16.2978 12.8996 15.7692C13.3751 15.1156 14.0578 14.7621 15.0234 14.6603Z" fill="white"/>
<path d="M41.8015 19.6721C41.4424 19.405 41.0433 19.2527 40.9422 18.9871C40.8617 18.7753 41.0663 18.3194 41.2831 18.159C41.7217 17.8239 42.2195 17.5748 42.7507 17.4251C43.0291 17.3537 43.5525 17.5336 43.6762 17.7595C43.7257 17.9241 43.7326 18.0986 43.6959 18.2665C43.6595 18.4345 43.5809 18.5904 43.4677 18.7195C43.0031 19.1034 42.4139 19.3367 41.8015 19.6721Z" fill="white"/>
<path d="M29.7386 16.2122C29.7077 15.49 30.2498 15.1287 30.8435 15.4004C31.3849 15.648 32.0075 16.8604 31.9042 17.4654C31.8116 18.0079 31.2806 18.2915 30.8366 17.9799C30.2574 17.5533 29.8642 16.9205 29.7386 16.2122Z" fill="white"/>
<path d="M40.2007 11.3383C40.1966 11.9849 39.311 12.8744 38.6715 12.8727C38.2681 12.8716 37.8871 12.4241 38.0872 12.0164C38.3313 11.4944 38.6943 11.037 39.1474 10.6809C39.6303 10.3298 40.2051 10.745 40.2007 11.3383Z" fill="white"/>
<path d="M20.7098 20.9981C20.0273 20.9593 19.2286 20.1507 19.2419 19.5909C19.2487 19.4801 19.278 19.3718 19.3277 19.2725C19.3774 19.1732 19.4465 19.0851 19.5311 19.0132C19.6158 18.9414 19.7142 18.8873 19.8202 18.8544C19.9262 18.8214 20.0378 18.8102 20.1482 18.8214C20.686 18.8904 21.3017 19.6915 21.2843 20.3033C21.2722 20.7277 21.1269 21.03 20.7098 20.9981Z" fill="white"/>
</g>
<defs>
<clipPath id="clip0_34_85">
<rect width="54.6839" height="48.1739" fill="white" transform="translate(0.467773 0.968933)"/>
</clipPath>
</defs>
</svg>
