<svg width="48" height="27" viewBox="0 0 48 27" fill="none" xmlns="http://www.w3.org/2000/svg">
<g clip-path="url(#clip0_34_100)">
<path d="M45.3894 24.0828C44.9517 24.0815 44.514 24.0828 44.0688 24.0828H43.6369L43.5925 23.8012C43.5485 23.5259 43.5101 23.2858 43.4766 23.043C42.94 19.1611 41.9063 15.8266 40.3164 12.8481C37.7248 7.99177 33.7951 4.85294 28.6397 3.51855C28.1073 3.3798 27.561 3.25429 27.0326 3.13219C26.8344 3.08621 26.6348 3.03992 26.4342 2.9934C26.4342 2.93136 26.436 2.8713 26.4368 2.81203C26.4399 2.58785 26.4429 2.37584 26.4306 2.16454C26.3872 1.41508 26.2058 0.923381 25.8602 0.617138C25.5145 0.310895 25.0108 0.191746 24.2709 0.238128C23.414 0.292241 22.5099 0.389366 21.4251 0.543776C20.6144 0.659138 20.0517 0.811552 19.7529 1.21333C19.4542 1.61512 19.4689 2.21766 19.5944 3.05671C19.5899 3.06761 19.5837 3.07961 19.5774 3.09328C19.5752 3.09804 19.573 3.10286 19.5706 3.10781L19.3561 3.15717C19.1183 3.21187 18.8716 3.26884 18.6248 3.32712C13.1115 4.63019 9.16242 7.71 6.8879 12.4811C4.95331 16.5391 4.04927 20.8924 3.42628 24.6363L2.92628 24.6888C2.37346 24.7467 1.82058 24.8045 1.26855 24.8672C1.13754 24.8735 1.00955 24.9082 0.893221 24.9689C0.776888 25.0295 0.675082 25.1146 0.594735 25.2182C0.540026 25.3005 0.50451 25.3942 0.490788 25.4922C0.477066 25.5903 0.485411 25.69 0.515371 25.7843C0.576961 25.9479 0.675677 26.0951 0.803598 26.2143C0.931518 26.3334 1.08512 26.4212 1.25268 26.4711C1.6353 26.5576 2.02748 26.595 2.41952 26.5823C2.48573 26.5823 2.55193 26.5823 2.61774 26.5823C6.60544 26.5611 10.2076 26.5407 13.9102 26.5031C16.0987 26.4807 18.287 26.4543 20.4752 26.4238C24.2913 26.3742 28.2374 26.3233 32.1182 26.3062C35.0855 26.2935 38.1043 26.3261 41.0233 26.3574C42.4964 26.3732 43.9697 26.3875 45.4433 26.4C46.5021 26.4077 47.4837 26.2777 47.5081 25.2878C47.5166 25.155 47.4978 25.0216 47.4524 24.8965C47.4072 24.7712 47.3364 24.6569 47.2447 24.5601C46.9331 24.2365 46.3434 24.0856 45.3894 24.0828ZM40.5991 23.8575V23.8612L5.68505 24.5415C5.69397 24.4751 5.70247 24.4083 5.71099 24.3417C5.74217 24.0386 5.79595 23.7387 5.87165 23.4436C6.0055 22.9738 6.13797 22.5037 6.26905 22.0331C6.94496 19.6209 7.64371 17.1267 8.64609 14.7731C10.7174 9.91048 14.2301 7.00566 19.3857 5.89308C20.6685 5.61308 21.9777 5.47056 23.2907 5.4682C25.9793 5.47504 28.6316 6.08983 31.0492 7.26646C33.6742 8.52116 35.8064 10.571 37.3836 13.3589C39.009 16.2297 40.0597 19.5409 40.5933 23.4819C40.6056 23.6067 40.6076 23.7324 40.5991 23.8575ZM21.6407 2.807C22.4651 2.62436 23.3071 2.53475 24.1513 2.53969C24.2094 2.61465 24.2623 2.69322 24.3099 2.77507C24.3163 2.78557 24.323 2.7963 24.3299 2.807H21.6407Z" fill="#302C4B"/>
</g>
<defs>
<clipPath id="clip0_34_100">
<rect width="47.1753" height="26.5609" fill="white" transform="translate(0.42627 0.173859)"/>
</clipPath>
</defs>
</svg>
