<svg width="42" height="43" viewBox="0 0 42 43" fill="none" xmlns="http://www.w3.org/2000/svg">
<g clip-path="url(#clip0_34_104)">
<path d="M41.3704 9.07443C41.3236 8.95651 41.2857 8.83527 41.2574 8.71162C40.957 7.15335 40.1228 5.74853 38.8981 4.73908C36.5641 2.78334 33.2032 2.5724 30.1267 4.18946C28.4046 5.097 27.055 6.57955 26.313 8.37917L15.8899 8.60378L14.4876 6.66839C13.2393 4.94575 12.0286 3.27477 10.8124 1.60777C10.5888 1.27082 10.2714 1.00655 9.89963 0.847387C9.52785 0.688218 9.11775 0.641149 8.71957 0.711882C8.41969 0.743872 8.11766 0.749586 7.81676 0.729094C7.71394 0.725465 7.61125 0.721712 7.50913 0.719811C6.73084 0.705296 5.95227 0.69004 5.17364 0.673912C4.14837 0.653176 3.12312 0.633237 2.09784 0.614344C2.06328 0.614344 2.02699 0.612355 1.99018 0.6108C1.78281 0.578868 1.57067 0.614772 1.38538 0.713231C0.964272 1.0139 0.758295 1.27048 0.737387 1.5207C0.710948 1.83934 1.02825 2.25675 1.3189 2.40208C1.68536 2.55347 2.07783 2.63219 2.47432 2.63394L2.50201 2.63579C4.35511 2.76452 6.20257 2.88033 7.9926 2.97987C8.16905 2.98267 8.34145 3.03259 8.49209 3.1245C8.64274 3.21639 8.76614 3.34703 8.84934 3.50265C9.37776 4.31118 9.93493 5.11869 10.4737 5.89992C10.7796 6.34349 11.0856 6.78721 11.3878 7.23303C11.6228 7.57863 11.8496 7.93433 12.1123 8.34542C12.1944 8.47347 12.2799 8.60739 12.3705 8.74856C12.2668 8.74856 12.1697 8.74723 12.0757 8.74654C11.7128 8.74412 11.3998 8.74174 11.0918 8.75211L10.2624 8.77894C9.08067 8.81678 7.85858 8.85603 6.65745 8.92912C5.95035 8.9718 5.40611 9.33109 5.16419 9.91411C4.9024 10.5455 5.29102 11.0302 5.6031 11.4194L5.67752 11.5129C5.73299 11.582 5.79278 11.6454 5.85032 11.7059L5.86618 11.7231C6.23482 12.1096 6.60395 12.4956 6.97386 12.8809C7.75543 13.6951 8.56362 14.5372 9.34225 15.3789C10.7022 16.8487 12.0596 18.3212 13.4143 19.7961C15.0278 21.5498 16.6962 23.363 18.3445 25.1401C18.4797 25.2759 18.579 25.443 18.6338 25.6265C18.6886 25.8102 18.6969 26.0044 18.6582 26.1921C18.5137 27.336 18.4276 28.2626 18.387 29.1081C18.296 31.0097 18.2158 32.9432 18.1382 34.8132C18.0888 36.0021 18.0383 37.1907 17.9872 38.3794C17.9765 38.6234 17.9444 38.8674 17.9105 39.1258C17.9008 39.1985 17.8913 39.2721 17.882 39.3464H17.3055C16.7061 39.3452 16.1381 39.344 15.57 39.35C15.2908 39.3423 15.0117 39.3673 14.7384 39.4245C14.0561 39.5946 13.8969 40.033 13.8836 40.3709C13.8638 40.8733 14.1256 41.2275 14.6388 41.3956C14.8472 41.4663 15.0628 41.5131 15.2817 41.5353C17.8782 41.7675 20.0583 41.9591 22.2583 42.1401C22.2907 42.1427 22.3237 42.1437 22.3566 42.1437C22.5816 42.1349 22.8041 42.0943 23.0177 42.0229C23.3032 41.9547 23.5565 41.7903 23.7352 41.5576C23.914 41.3248 24.0073 41.0376 23.9997 40.7442C24.011 40.4468 23.9113 40.1558 23.7196 39.9282C23.5282 39.7005 23.2586 39.5524 22.9636 39.5128C22.5947 39.4577 22.2227 39.4271 21.8496 39.4211L21.7126 39.4161C21.4547 39.4055 21.1997 39.4081 20.9289 39.4105L20.7551 39.4121C20.7798 39.1942 20.8069 38.9839 20.8321 38.7793C20.9013 38.2275 20.9676 37.7064 20.9818 37.1842C21.0722 33.8633 21.1719 29.9439 21.218 26.0466C21.2064 25.7818 21.2539 25.518 21.3575 25.274C21.4608 25.0302 21.6173 24.8124 21.8155 24.6367C23.388 23.1247 24.974 21.5481 26.5273 19.9509C27.4096 19.0435 28.2846 18.093 29.1305 17.1741C29.475 16.7994 29.8215 16.4241 30.17 16.0478C31.7019 17.4359 33.5554 17.8191 35.8308 17.2196C38.9156 16.4075 40.7486 14.5462 41.279 11.69C41.2988 11.6109 41.3286 11.5345 41.3674 11.4627C41.3889 11.4183 41.4105 11.374 41.4291 11.3291C41.4381 11.3072 41.4426 11.2836 41.4426 11.2599V9.3149C41.4426 9.29604 41.4397 9.27728 41.4338 9.25938C41.4151 9.19786 41.3927 9.13646 41.3704 9.07443ZM31.7638 10.6235C30.4403 12.4267 22.0113 21.0513 19.827 22.8069L8.46104 10.916L31.7638 10.6235ZM32.802 13.0534C33.2689 12.5004 33.7359 11.9459 34.2032 11.3897C34.2581 11.3243 34.3146 11.2595 34.371 11.1951C34.5367 11.0138 34.6893 10.821 34.8277 10.618C34.9469 10.4483 35.0286 10.255 35.0668 10.0511C35.1052 9.84733 35.0993 9.63779 35.0499 9.43639C34.9981 9.25972 34.9084 9.09644 34.7871 8.95798C34.6658 8.81953 34.5158 8.70915 34.3473 8.63465C33.8203 8.40153 33.2519 8.27577 32.6756 8.26459C31.756 8.23003 30.8466 8.23642 29.883 8.24316C29.5877 8.24523 29.2889 8.24696 28.9864 8.24822C29.3406 7.6736 29.8022 7.17248 30.3458 6.77217C31.0206 6.23145 31.8087 5.84996 32.6514 5.65641C33.4942 5.46285 34.3699 5.46209 35.213 5.65421C37.3613 6.10626 38.6604 7.98496 38.5233 10.4408C38.4974 11.0164 38.353 11.5806 38.0991 12.0979C37.8453 12.6152 37.4876 13.0747 37.0481 13.4476C36.5992 13.8228 36.0779 14.1015 35.5165 14.2662C34.955 14.4308 34.3656 14.478 33.785 14.4047C33.2303 14.3416 32.798 14.1327 32.2817 13.6708L32.802 13.0534Z" fill="#302C4B"/>
</g>
<defs>
<clipPath id="clip0_34_104">
<rect width="40.7806" height="41.8174" fill="white" transform="translate(0.674805 0.499023)"/>
</clipPath>
</defs>
</svg>
