<svg width="55" height="59" viewBox="0 0 55 59" fill="none" xmlns="http://www.w3.org/2000/svg">
<g clip-path="url(#clip0_34_94)">
<path d="M40.5524 40.2065C39.6348 40.3117 39.2411 41.0435 38.7826 41.6551C36.917 44.1432 35.0098 44.8094 32.0081 43.9801C29.6978 43.3412 29.0615 43.642 27.9437 45.8121C27.5475 46.6549 27.0758 47.4601 26.5346 48.218C26.1429 48.7203 25.643 49.1278 25.0723 49.4105C24.5016 49.6933 23.8747 49.8438 23.2379 49.8513C22.601 49.8587 21.9704 49.7228 21.3933 49.4533C20.8162 49.184 20.3072 48.788 19.9038 48.2951C19.7807 48.1425 19.649 47.9969 19.5093 47.8589C18.7686 47.1676 18.0079 47.3107 17.7373 48.3017C17.5079 49.1419 17.4996 50.0428 17.3987 50.9174C17.247 52.231 17.1204 53.5481 16.94 54.8574C16.8698 55.2932 16.7343 55.7159 16.5384 56.1113C15.5437 58.2092 13.0939 58.4495 11.8606 56.4758C11.2561 55.5083 10.9863 54.3163 10.6534 53.1997C10.3884 52.3107 10.3304 51.3607 10.0485 50.4801C9.70153 49.3974 9.18633 49.2351 8.13969 49.7033C7.53127 50.017 6.90297 50.2909 6.25887 50.5226C3.98524 51.1973 1.87473 49.9777 1.23557 47.6987C0.935628 46.6291 0.784531 45.7052 1.77238 44.785C2.42244 44.1791 2.74733 43.2153 3.18835 42.3952C7.80503 33.7927 12.8906 25.471 18.3219 17.362C21.2416 13.0035 24.2131 8.67726 27.1781 4.34821C27.7316 3.53986 28.3918 2.80518 28.9538 2.00199C29.6554 0.998366 30.5965 0.678922 31.769 0.843229C34.1556 1.17787 36.2741 2.20189 38.2458 3.49972C46.1403 8.6959 51.2972 15.8217 53.2904 25.1281C53.7096 27.0843 54.3101 29.0109 54.0173 31.0775C53.9192 31.7709 54.2588 32.5164 54.3207 33.2448C54.4635 34.4227 54.2341 35.6159 53.6652 36.6571C53.1026 37.632 52.3513 38.1662 51.1369 38.0008C49.7083 37.8064 49.4164 38.0481 49.1784 39.4744C48.9777 40.6822 48.8716 41.9057 48.6907 43.1161C48.6081 43.6486 48.4833 44.1739 48.3182 44.6866C47.7994 46.3228 46.9022 47.0429 45.3741 47.0913C43.6852 47.1452 42.3673 46.3171 41.8471 44.7583C41.6177 44.0701 41.5996 43.3154 41.4365 42.6023C41.2449 41.7724 41.3843 40.8089 40.5524 40.2065ZM36.5637 23.6657C36.5431 23.6212 36.5353 23.5555 36.5004 23.5354C36.2982 23.4041 36.0849 23.2907 35.8629 23.1965C33.9474 22.5055 32.8317 21.1202 32.3391 19.182C32.1704 18.5194 32.0176 17.8512 31.8149 17.1991C31.5958 16.3491 31.3053 15.519 30.9472 14.7176C30.0981 13.0505 28.3089 12.3754 26.0012 12.6619C24.3466 12.8672 24.0028 14.2083 23.2771 15.4288C25.6754 15.7396 26.7299 17.1946 26.9866 19.2124C27.1738 20.531 27.0437 21.8753 26.6074 23.1337C26.1712 24.392 25.4413 25.5282 24.4781 26.4479C22.2587 28.6642 19.1981 28.9519 16.5006 27.3507C16.2171 27.1824 15.9464 26.9917 15.5404 26.7273L4.66509 44.262L4.85495 44.5384L12.3772 42.126C12.4093 41.7913 12.4309 41.6477 12.4346 41.5034C12.4404 41.3076 12.4154 41.1094 12.4346 40.9153C12.7581 37.5466 14.0326 34.7923 17.252 33.2089C20.5335 31.5951 25.6128 31.9825 27.6323 36.2703C27.7331 36.4498 27.8456 36.6221 27.9692 36.7864C28.5588 36.5857 29.1135 36.4076 29.6611 36.2089C30.2395 35.9993 30.8107 35.7702 31.3698 35.5551C29.947 31.0058 32.0552 26.2886 36.5637 23.6657ZM13.7387 55.6448L14.1504 55.5499C14.8483 54.4889 14.8431 53.253 14.9624 52.0486C15.0972 50.6854 15.1109 49.2984 15.3816 47.963C15.7865 45.965 17.4749 44.8991 19.3018 45.3794C20.0906 45.5867 20.8864 45.8024 21.4597 46.5127C21.9841 47.1621 22.7583 47.5513 23.5397 47.0971C24.0694 46.7581 24.4877 46.2706 24.7422 45.6954C25.456 44.1269 26.6298 42.8124 28.1078 41.9261C28.6307 41.5614 29.2289 41.3196 29.8584 41.2184C30.4875 41.1172 31.1318 41.1593 31.7426 41.3414C32.2132 41.4768 32.674 41.6617 33.1531 41.7489C34.3985 41.9754 35.4867 41.7575 36.2357 40.5942C36.5405 40.1491 36.8777 39.7273 37.245 39.3324C38.3043 38.1295 39.5551 37.2478 41.2346 37.7424C42.8453 38.2167 43.4251 39.5836 43.6926 41.1069C43.8282 41.8785 43.9257 42.6573 44.0671 43.4281C44.1675 43.9755 44.341 44.5261 45.0243 44.5481C45.7076 44.5702 45.6898 43.9442 45.8427 43.5078C45.9152 43.2735 45.9622 43.0321 45.9826 42.7878C46.126 41.5723 46.2564 40.3553 46.3987 39.14C46.7336 36.2812 48.6198 35.1987 50.7888 35.527C50.8691 35.539 50.9634 35.4588 51.2189 35.3506C51.3224 34.5652 51.4374 33.6921 51.5805 32.6044C49.261 33.2422 47.2102 33.7228 45.2144 34.3694C35.7095 37.4456 26.2352 40.6162 16.7165 43.6489C12.4755 45.0003 8.15652 46.1072 3.87191 47.3222C3.57798 47.4056 3.27728 47.4655 2.92974 47.5484C3.9348 48.9839 4.46981 49.1694 5.80549 48.5861C6.25225 48.3909 6.65691 48.1015 7.09965 47.8956C7.52636 47.6631 7.98235 47.4885 8.4554 47.3769C10.1203 47.1051 11.4903 47.9238 12.0724 49.6741C12.487 50.9209 12.6445 52.2508 12.9786 53.5274C13.1676 54.2494 13.4817 54.9397 13.7398 55.6448H13.7387ZM46.3534 30.7581C46.3204 30.3208 46.2627 29.8858 46.1813 29.4551C44.5268 23.0388 41.7009 17.2221 37.1802 12.3239C34.8797 9.83143 31.9689 8.27438 28.7239 7.21541L26.0085 11.1287C26.5966 11.1287 26.8908 11.1511 27.1807 11.1252C30.1936 10.8563 32.3313 12.8127 33.1918 15.4996C33.4602 16.3366 33.6871 17.1877 33.913 18.0373C34.3449 19.6601 35.2011 20.8655 36.9305 21.3037C37.3999 21.4456 37.8504 21.6445 38.2719 21.8958C40.0842 22.8759 41.1945 24.3665 41.2934 26.4517C41.304 27.6257 41.255 28.7994 41.1466 29.9684C41.105 30.7251 41.039 31.4807 40.9774 32.3286L46.3534 30.7581ZM51.3328 29.4751C51.2923 28.9711 51.2817 28.6794 51.2442 28.3916C50.0834 19.5172 46.2719 12.1369 38.9171 6.82113C37.3686 5.71081 35.7173 4.75155 33.9853 3.95651C31.6996 2.89985 31.4559 3.06469 30.1448 5.23939C30.1056 5.30449 30.14 5.41431 30.14 5.49976C30.2237 5.55614 30.3117 5.60549 30.4035 5.64718C30.6796 5.74668 30.9632 5.82583 31.2379 5.92906C34.4994 7.15348 37.3701 8.93362 39.7031 11.5803C43.5008 15.9039 46.3479 20.9769 48.0601 26.4709C48.4277 27.6242 48.7956 28.7775 49.1853 29.9999L51.3328 29.4751ZM25.4198 37.6656C24.744 35.5459 22.995 34.5839 20.7148 34.9243C17.4691 35.4086 15.3151 37.8218 15.313 41.0856L25.4198 37.6656ZM16.9893 24.6782C19.1135 26.3514 21.1893 26.218 22.5571 24.3995C23.4004 23.3013 23.8506 21.9518 23.8354 20.5673C23.8197 18.9025 23.1923 18.263 21.3496 18.064L16.9893 24.6782ZM38.2908 33.2204C38.4832 31.8497 38.6656 30.6396 38.8202 29.4258C38.9776 28.1879 39.402 26.9458 38.8878 25.6936C35.5535 26.343 33.2237 31.1558 34.6597 34.4244L38.2908 33.2204Z" fill="#302C4B"/>
</g>
<defs>
<clipPath id="clip0_34_94">
<rect width="53.9089" height="57.3499" fill="white" transform="translate(0.727051 0.674927)"/>
</clipPath>
</defs>
</svg>
