<svg width="29" height="28" viewBox="0 0 29 28" fill="none" xmlns="http://www.w3.org/2000/svg">
<path d="M2.9873 2.44722H4.98309C6.22185 2.44722 7.19679 3.51393 7.09356 4.74122L6.14155 16.1653C5.98097 18.0349 7.46059 19.6407 9.34167 19.6407H21.5572C23.2089 19.6407 24.6541 18.2873 24.7803 16.6471L25.3996 8.04458C25.5373 6.14056 24.0921 4.5921 22.1766 4.5921H7.36885" stroke="#668080" stroke-width="1.7205" stroke-miterlimit="10" stroke-linecap="round" stroke-linejoin="round"/>
<path d="M19.3327 25.3872C20.1245 25.3872 20.7664 24.7453 20.7664 23.9534C20.7664 23.1616 20.1245 22.5197 19.3327 22.5197C18.5408 22.5197 17.8989 23.1616 17.8989 23.9534C17.8989 24.7453 18.5408 25.3872 19.3327 25.3872Z" stroke="#668080" stroke-width="1.7205" stroke-miterlimit="10" stroke-linecap="round" stroke-linejoin="round"/>
<path d="M10.1564 25.3872C10.9482 25.3872 11.5902 24.7453 11.5902 23.9534C11.5902 23.1616 10.9482 22.5197 10.1564 22.5197C9.36457 22.5197 8.72266 23.1616 8.72266 23.9534C8.72266 24.7453 9.36457 25.3872 10.1564 25.3872Z" stroke="#668080" stroke-width="1.7205" stroke-miterlimit="10" stroke-linecap="round" stroke-linejoin="round"/>
<path d="M11.0171 9.32921H24.7811" stroke="#668080" stroke-width="1.7205" stroke-miterlimit="10" stroke-linecap="round" stroke-linejoin="round"/>
</svg>
