<svg width="15" height="14" viewBox="0 0 15 14" fill="none" xmlns="http://www.w3.org/2000/svg">
<path d="M8.72653 2.01298L9.73589 4.03169C9.87353 4.31271 10.2406 4.58225 10.5503 4.63387L12.3797 4.93782C13.5497 5.13281 13.8249 5.98159 12.9819 6.8189L11.5596 8.24118C11.3187 8.48205 11.1868 8.94658 11.2614 9.27921L11.6686 11.0399C11.9897 12.4335 11.2499 12.9725 10.0169 12.2442L8.30214 11.2291C7.99245 11.0456 7.48204 11.0456 7.16661 11.2291L5.45185 12.2442C4.22456 12.9725 3.47902 12.4277 3.80017 11.0399L4.20736 9.27921C4.28191 8.94658 4.15001 8.48205 3.90914 8.24118L2.48686 6.8189C1.64955 5.98159 1.9191 5.13281 3.08904 4.93782L4.9185 4.63387C5.22245 4.58225 5.58949 4.31271 5.72713 4.03169L6.73649 2.01298C7.28705 0.917595 8.18171 0.917595 8.72653 2.01298Z" fill="#FFBB01" stroke="#FFBB01" stroke-width="0.874772" stroke-linecap="round" stroke-linejoin="round"/>
</svg>
