<svg width="14" height="14" viewBox="0 0 14 14" fill="none" xmlns="http://www.w3.org/2000/svg">
<path d="M8.65471 1.147V6.88199C8.65471 7.51283 8.13856 8.02898 7.50771 8.02898H1.19922V4.37006C1.61787 4.869 2.26021 5.17869 2.97135 5.16149C3.55058 5.15002 4.07245 4.92636 4.46243 4.55358C4.64021 4.40447 4.78934 4.21521 4.90404 4.00875C5.11049 3.65892 5.22518 3.24599 5.21371 2.81586C5.19651 2.14487 4.8983 1.55418 4.43376 1.147H8.65471Z" stroke="#6C69F2" stroke-width="0.860249" stroke-linecap="round" stroke-linejoin="round"/>
<path d="M12.6692 8.02898V9.74947C12.6692 10.7015 11.9007 11.47 10.9487 11.47H10.3752C10.3752 10.8391 9.85905 10.323 9.2282 10.323C8.59735 10.323 8.08121 10.8391 8.08121 11.47H5.78721C5.78721 10.8391 5.27106 10.323 4.64021 10.323C4.00936 10.323 3.49321 10.8391 3.49321 11.47H2.91972C1.96771 11.47 1.19922 10.7015 1.19922 9.74947V8.02898H7.50771C8.13856 8.02898 8.6547 7.51283 8.6547 6.88198V2.86749H9.70996C10.1229 2.86749 10.5014 3.09116 10.7078 3.44672L11.6885 5.16148H10.9487C10.6333 5.16148 10.3752 5.41956 10.3752 5.73498V7.45548C10.3752 7.7709 10.6333 8.02898 10.9487 8.02898H12.6692Z" stroke="#6C69F2" stroke-width="0.860249" stroke-linecap="round" stroke-linejoin="round"/>
<path d="M4.64114 12.617C5.27461 12.617 5.78814 12.1035 5.78814 11.47C5.78814 10.8365 5.27461 10.323 4.64114 10.323C4.00767 10.323 3.49414 10.8365 3.49414 11.47C3.49414 12.1035 4.00767 12.617 4.64114 12.617Z" stroke="#6C69F2" stroke-width="0.860249" stroke-linecap="round" stroke-linejoin="round"/>
<path d="M9.22952 12.617C9.86299 12.617 10.3765 12.1035 10.3765 11.47C10.3765 10.8365 9.86299 10.323 9.22952 10.323C8.59605 10.323 8.08252 10.8365 8.08252 11.47C8.08252 12.1035 8.59605 12.617 9.22952 12.617Z" stroke="#6C69F2" stroke-width="0.860249" stroke-linecap="round" stroke-linejoin="round"/>
<path d="M12.669 6.88198V8.02898H10.9485C10.6331 8.02898 10.375 7.77091 10.375 7.45548V5.73499C10.375 5.41956 10.6331 5.16149 10.9485 5.16149H11.6883L12.669 6.88198Z" stroke="#6C69F2" stroke-width="0.860249" stroke-linecap="round" stroke-linejoin="round"/>
<path d="M5.21494 2.86749C5.21494 3.55569 4.911 4.16933 4.43499 4.58799C4.02781 4.94356 3.50018 5.16149 2.92095 5.16149C1.65352 5.16149 0.626953 4.13492 0.626953 2.86749C0.626953 2.14488 0.959582 1.49683 1.4872 1.07818C1.88292 0.762753 2.38186 0.573496 2.92095 0.573496C4.18838 0.573496 5.21494 1.60006 5.21494 2.86749Z" stroke="#6C69F2" stroke-width="0.860249" stroke-miterlimit="10" stroke-linecap="round" stroke-linejoin="round"/>
<path d="M3.06453 2.1506V3.01085L2.34766 3.44097" stroke="#6C69F2" stroke-width="0.860249" stroke-miterlimit="10" stroke-linecap="round" stroke-linejoin="round"/>
</svg>
